<?xml version="1.0" encoding="UTF-8" standalone="no"?>
<svg width="157px" height="314px" viewBox="0 0 157 314" version="1.1" xmlns="http://www.w3.org/2000/svg" xmlns:xlink="http://www.w3.org/1999/xlink" xmlns:sketch="http://www.bohemiancoding.com/sketch/ns">
    <!-- Generator: Sketch 3.4.2 (15855) - http://www.bohemiancoding.com/sketch -->
    <title>architect</title>
    <desc>Created with Sketch.</desc>
    <defs>
        <linearGradient x1="50%" y1="-1.20876634%" x2="50%" y2="75.158752%" id="linearGradient-1">
            <stop stop-color="#FFFFFF" stop-opacity="0.633491848" offset="0%"></stop>
            <stop stop-color="#FFFFFF" stop-opacity="0" offset="100%"></stop>
        </linearGradient>
    </defs>
    <g id="Design" stroke="none" stroke-width="1" fill="none" fill-rule="evenodd" sketch:type="MSPage">
        <g sketch:type="MSArtboardGroup" transform="translate(-288.000000, -350.000000)" id="architect">
            <g sketch:type="MSLayerGroup" transform="translate(288.000000, 350.000000)">
                <g id="Rectangle-18-+-Oval-38" transform="translate(41.653061, 286.765306)" fill="#676767" sketch:type="MSShapeGroup">
                    <path d="M9.34711898,11.0559786 C12.1195682,4.27923055 12.4429518,0 12.4429518,0 L30.1724201,0 C30.1724201,0 32.7198058,20.6857262 27.7971287,23.8827677 C22.8744515,27.0798091 0.229429999,25.7619682 0.229429999,25.7619682 C0.229429999,25.7619682 6.57466978,17.8327266 9.34711898,11.0559786 Z" id="Rectangle-18"></path>
                </g>
                <g id="Rectangle-18-+-Oval-38-Copy-2-+-Oval-38-Copy-2" transform="translate(97.323980, 300.382653) scale(-1, 1) translate(-97.323980, -300.382653) translate(80.903061, 286.765306)" fill="#676767" sketch:type="MSShapeGroup">
                    <path d="M9.34711898,11.0559786 C12.1195682,4.27923055 12.4429518,0 12.4429518,0 L30.6969164,0 C30.6969164,0 34.7962791,21.5696648 29.873602,24.7667062 C24.9509248,27.9637476 0.229429999,25.7619682 0.229429999,25.7619682 C0.229429999,25.7619682 6.57466978,17.8327266 9.34711898,11.0559786 Z" id="Rectangle-18"></path>
                </g>
                <g id="Arch_hands" transform="translate(16.821429, 224.285714)" fill="#FFEDDA" sketch:type="MSShapeGroup">
                    <path d="M23.6183491,0 L5.77803607,0 C5.77803607,0 -0.16873504,11.3839282 0.822393465,19.3129562 C1.81352197,27.2419842 11.7248059,35.1710123 15.6893208,31.2064983 C19.6538358,27.2419842 14.6981926,21.8048271 15.6893211,17.8403131 C16.6804496,13.8757991 15.6893211,22.2863417 17.6715781,25.2597272 C19.6538351,28.2331127 23.6183491,26.2508557 21.6360921,22.7959556 C19.6538351,19.3410555 18.6627066,14.8669276 19.6538351,9.91128505 C20.6449636,4.95564253 23.6183491,0 23.6183491,0 Z" id="Path-17"></path>
                    <path d="M120.153061,0 L102.312748,0 C102.312748,0 96.365977,11.3839282 97.3571055,19.3129562 C98.3482341,27.2419842 108.259518,35.1710123 112.224033,31.2064983 C116.188548,27.2419842 111.232905,21.8048271 112.224033,17.8403131 C113.215162,13.8757991 112.224033,22.2863417 114.20629,25.2597272 C116.188547,28.2331127 120.153061,26.2508557 118.170804,22.7959556 C116.188547,19.3410555 115.197419,14.8669276 116.188547,9.91128505 C117.179676,4.95564253 120.153061,0 120.153061,0 Z" id="Path-17-Copy" transform="translate(108.699369, 16.130502) scale(-1, 1) translate(-108.699369, -16.130502) "></path>
                </g>
                <g id="Arch_cloth" transform="translate(12.816327, 129.765306)" sketch:type="MSShapeGroup">
                    <path d="M25.3887803,108.137755 L5.34725614,108.137755 C5.34725614,108.137755 -6.68406857,56.0714286 5.34725374,24.0306122 C17.3785761,-8.01020408 64.6387779,1.60204082 64.6387779,1.60204082 L64.8826531,120.954082 L31.2397959,120.954082 L28.592862,71.2908163 L25.3887803,108.137755 Z M103.88878,108.137755 L123.930305,108.137755 C123.930305,108.137755 135.961629,56.0714286 123.930307,24.0306122 C111.898985,-8.01020408 64.6387827,1.60204082 64.6387827,1.60204082 L64.8826518,120.954082 L98.5255089,120.954082 L100.684699,71.2908163 L103.88878,108.137755 Z" id="Path-10" fill="#4A4A4A"></path>
                    <path d="M40.8520408,19.2641655 C40.8520408,19.2641655 53.6701738,57.6734694 65.6836735,57.6734694 C76.0969388,57.6734694 90.5153061,18.4234694 90.5153061,18.4234694 L40.8520408,19.2641655 Z" id="Path-12" fill="#FFFFFF"></path>
                    <path d="M64.8826531,20.8265306 L56.872449,22.4285714 L60.877551,32.0408163 L68.8877551,32.0408163 L72.8928571,22.4285714 L64.8826531,20.8265306 Z" id="Path-13" fill="#E88778"></path>
                    <path d="M71.2908156,22.4285714 L57.9520431,22.4285714 L62.2010177,32.0408163 L67.2857143,32.0408163 L71.2908156,22.4285714 Z" id="Path-13-Copy" fill="#ED5E49"></path>
                    <path d="M60.877551,32.0408163 L53.6683673,47.2602041 C53.6683673,47.2602041 58.9525707,56.8827917 64.8826531,57.6734694 C70.8127354,58.464147 76.8979592,47.2602041 76.8979592,47.2602041 L68.8877551,32.0408163 L60.877551,32.0408163 Z" id="Path-15" fill="#ED5E49"></path>
                    <path d="M60.877551,32.0408163 L64.0816327,32.0408163 L64.8826531,57.6734694 C64.8826531,57.6734694 61.6785714,57.6734694 57.6734694,52.8673469 C53.6683673,48.0612245 53.6683673,47.2602041 53.6683673,47.2602041 L60.877551,32.0408163 Z" id="Path-16" fill="#E88778"></path>
                    <path d="M0.801020408,94.5204082 L28.0357143,94.5204082 L25.6326531,108.938776 L4.00510204,108.938776 L0.801020408,94.5204082 Z" id="Rectangle-16" fill="#FFFFFF"></path>
                    <path d="M100.127551,94.5204082 L127.362245,94.5204082 L124.959184,108.938776 L103.331633,108.938776 L100.127551,94.5204082 Z" id="Rectangle-16-Copy" fill="#FFFFFF"></path>
                </g>
                <g id="Arch_head" sketch:type="MSShapeGroup">
                    <ellipse id="Oval-35" fill="#FFECD9" cx="148.589286" cy="92.1173469" rx="8.41071429" ry="11.2142857"></ellipse>
                    <ellipse id="Oval-35-Copy" fill="#FFECD9" cx="8.41071429" cy="92.1173469" rx="8.41071429" ry="11.2142857"></ellipse>
                    <path d="M151.392857,69.3561441 C151.392857,40.8187884 126.561224,12.8842053 112.943878,7.27706248 C99.3265306,1.66991962 98.4700329,5.68644976 95.3214286,4.87400125 C89.5711124,3.39022135 84.1006437,0.0678788051 78.0994898,0.0678788051 C40.2750289,0.0678788051 4.80612245,31.5316832 4.80612245,69.3561441 C4.80612245,107.180605 151.392857,107.180605 151.392857,69.3561441 Z" id="Oval-28" fill="#676767"></path>
                    <path d="M143.440239,59.0963543 C146.50641,66.9748103 148.188776,75.544763 148.188776,84.5076531 C148.188776,123.216897 116.808733,154.596939 78.0994898,154.596939 C39.3902462,154.596939 8.01020408,123.216897 8.01020408,84.5076531 C8.01020408,79.9172239 8.45150082,75.4298652 9.29398492,71.0856862 C12.0985234,64.4990071 34.8443878,46.4591837 34.8443878,46.4591837 C34.8443878,46.4591837 24.0306122,72.8928571 37.6479592,62.4795918 C51.2653061,52.0663265 85.7091837,40.8520408 85.7091837,40.8520408 L76.497449,54.4693878 C76.497449,54.4693878 79.7015306,62.4795918 98.5255102,49.6632653 C117.34949,36.8469388 121.354592,40.0510204 128.163265,46.4591837 C134.971939,52.8673469 143.382653,59.2755102 143.382653,59.2755102 L143.440239,59.0963543 Z" id="Oval-27" fill="#FFEDDA"></path>
                    <ellipse id="Oval-33" fill="#252D37" cx="43.255102" cy="92.1173469" rx="8.81122449" ry="8.81122449"></ellipse>
                    <ellipse id="Oval-33-Copy" fill="#252D37" cx="112.943878" cy="92.1173469" rx="8.81122449" ry="8.81122449"></ellipse>
                    <g id="Glasses-Copy-2" transform="translate(12.015306, 64.882653)">
                        <g id="Oval-1-Copy-+-Rectangle-1-+-Oval-1" transform="translate(0.378579, 0.117093)">
                            <ellipse id="Oval-1-Copy" fill-opacity="0.2" fill="#C3C3C3" cx="26.5401164" cy="26.5401164" rx="26.5401164" ry="26.5401164"></ellipse>
                            <rect id="Rectangle-1" fill="url(#linearGradient-1)" transform="translate(27.033886, 27.033886) rotate(41.000000) translate(-27.033886, -27.033886) " x="18.5163603" y="1.23442402" width="17.0350515" height="51.598924"></rect>
                            <ellipse id="Oval-1" stroke="#4A4A4A" stroke-width="4" cx="26.5401164" cy="26.5401164" rx="26.5401164" ry="26.5401164"></ellipse>
                        </g>
                        <g id="Oval-1-Copy-+-Rectangle-1-+-Oval-1-Copy" transform="translate(79.300504, 0.117093)">
                            <ellipse id="Oval-1-Copy" fill-opacity="0.2" fill="#C3C3C3" cx="26.5401164" cy="26.5401164" rx="26.5401164" ry="26.5401164"></ellipse>
                            <rect id="Rectangle-1" fill="url(#linearGradient-1)" transform="translate(27.033886, 27.033886) rotate(41.000000) translate(-27.033886, -27.033886) " x="18.5163603" y="1.23442402" width="17.0350515" height="51.598924"></rect>
                            <ellipse id="Oval-1" stroke="#4A4A4A" stroke-width="4" cx="26.5401164" cy="26.5401164" rx="26.5401164" ry="26.5401164"></ellipse>
                        </g>
                        <path d="M52.7603873,26.7674869 C52.7603873,26.7674869 61.4416778,24.561937 66.0304455,24.561937 C70.2883833,24.561937 79.3005037,26.7674869 79.3005037,26.7674869 L79.3005037,31.5461782 C79.3005037,31.5461782 70.6155271,28.9730367 66.0304455,28.9730367 C61.7688216,28.9730367 52.7603873,31.5461782 52.7603873,31.5461782 L52.7603873,26.7674869 Z" id="Rectangle-3" fill="#4A4A4A"></path>
                    </g>
                </g>
                <g id="Arch_pants" transform="translate(40.051020, 234.698980)" sketch:type="MSShapeGroup">
                    <path d="M37.013409,0.809947811 C37.0146971,0.804012881 37.0153476,0.801020465 37.0153476,0.801020465 L0.910818855,0.801020465 C0.910818855,0.801020465 -0.37862863,8.53770537 0.266095112,25.3005227 C0.910818855,42.06334 2.20026634,53.6683673 2.20026634,53.6683673 L32.7319301,53.6683674 C32.7319301,53.6683674 29.9233865,40.1291688 31.8575577,27.8794176 C31.9043426,27.5831135 31.9518819,27.2853005 32.0001117,26.9862249 C33.5814397,27.145928 35.2635664,27.2346939 37.0153484,27.2346939 C38.9136094,27.2346939 40.7543089,27.1304626 42.4884254,26.9446857 C42.5387291,27.2577267 42.5883898,27.5693981 42.6373403,27.8794176 C44.5715115,40.1291688 41.7981676,53.6683673 41.7981676,53.6683673 L72.2946316,53.6683673 C72.2946316,53.6683673 73.5840791,42.06334 74.2288028,25.3005227 C74.8735266,8.53770537 73.5840791,0.801020465 73.5840791,0.801020465 L37.6600722,0.801020465 C37.6600722,0.801020465 37.6606761,0.803963091 37.6618722,0.80979968 C37.5538319,0.803953181 37.4457726,0.801003428 37.3377103,0.801020465 C37.2296075,0.80103751 37.1215017,0.804036828 37.013409,0.809947812 Z" id="Path-19" fill="#676767"></path>
                    <g id="Path-21-+-Path-21-Copy" transform="translate(0.801020, 46.459184)">
                        <path d="M32.4058088,0.223331374 L0,1.55117915 L1.29623235,16.8214286 L32.4058088,16.1575047 L32.4058088,0.223331374 Z" id="Path-21" fill="#848484"></path>
                        <path d="M30.4634419,0.328836869 L0,1.55117915 L1.29623235,16.8214286 L30.4634419,0.328836869 Z" id="Path-21-Copy" fill="#8C8C8C"></path>
                    </g>
                    <g id="Path-21-+-Path-21-Copy-2" transform="translate(57.272959, 54.869898) scale(-1, 1) translate(-57.272959, -54.869898) translate(40.852041, 46.459184)">
                        <path d="M32.4058088,0.223331374 L0,1.55117915 L1.29623235,16.8214286 L32.4058088,16.1575047 L32.4058088,0.223331374 Z" id="Path-21" fill="#848484"></path>
                        <path d="M30.4634419,0.328836869 L0,1.55117915 L1.29623235,16.8214286 L30.4634419,0.328836869 Z" id="Path-21-Copy" fill="#8C8C8C"></path>
                    </g>
                </g>
                <path d="M111.411457,313.197763 C119.071314,313.165476 122.840483,312.56055 122.840483,308.348115 C122.840483,299.858173 116.380936,294.039764 107.854241,294.039764 C99.3275455,294.039764 92.5741789,299.858173 92.5741789,308.348116 C92.5741789,312.625623 103.633273,313.230548 111.411457,313.197763 Z" id="Oval-38-Copy-2" fill="#676767" sketch:type="MSShapeGroup" transform="translate(107.707331, 303.619372) scale(-1, 1) translate(-107.707331, -303.619372) "></path>
                <path d="M49.2197316,313.353082 C56.8795885,313.320796 60.6487582,312.71587 60.6487582,308.503435 C60.6487582,300.013493 54.1892107,294.195083 45.6625155,294.195083 C37.1358204,294.195083 30.3824538,300.013493 30.3824538,308.503435 C30.3824538,312.780942 41.4415482,313.385868 49.2197316,313.353082 Z" id="Oval-38" fill="#676767" sketch:type="MSShapeGroup"></path>
            </g>
        </g>
    </g>
</svg>