<?xml version="1.0" encoding="UTF-8" standalone="no"?>
<svg width="158px" height="310px" viewBox="0 0 158 310" version="1.1" xmlns="http://www.w3.org/2000/svg" xmlns:xlink="http://www.w3.org/1999/xlink" xmlns:sketch="http://www.bohemiancoding.com/sketch/ns">
    <!-- Generator: Sketch 3.4.2 (15855) - http://www.bohemiancoding.com/sketch -->
    <title>UX</title>
    <desc>Created with Sketch.</desc>
    <defs>
        <path id="path-1" d="M27.5936158,87.1945313 C27.5936158,87.1945313 13.482014,87.6828125 7.39845723,87.6828125 C6.82686458,87.6828125 -6.17280239,56.55 5.81284997,24.55 C17.7985023,-7.45 66.8237965,1.66171875 66.8237965,1.66171875 L66.8237965,134.016406 L22.7751543,134.016406 C22.7751543,134.016406 26.5476334,123.920312 28.171647,106.245313 C29.7956606,88.5703125 28.9702197,71.75 28.9702197,71.75 L27.5936158,87.1945313 Z"></path>
        <path id="path-2" d="M92.6725277,87.4085937 C92.6725277,87.4085937 78.5609259,87.6828125 72.4773692,87.6828125 C71.9057766,87.6828125 58.9061096,56.55 70.8917619,24.55 C82.8774143,-7.45 131.902708,1.87578125 131.902708,1.87578125 L131.902708,134.016406 L87.8540663,134.016406 C87.8540663,134.016406 91.6265454,123.920312 93.250559,106.245312 C94.8745726,88.5703125 94.0491317,71.75 94.0491317,71.75 L92.6725277,87.4085937 Z"></path>
        <path d="M44.4421757,0.105468742 L34.3224826,29.6179688 L65.2395241,12.915625 L65.2395241,0.105468742 L44.4421757,0.105468742 Z M86.2379261,0.105468742 L96.1565657,29.6179688 L65.2395241,12.915625 L65.2395241,0.105468742 L86.2379261,0.105468742 Z" id="path-3"></path>
        <path id="path-4" d="M1.5959596,77.6 L28.0048828,77.6 L26.3333333,92 L4.78787879,92 L1.5959596,77.6 Z"></path>
        <path id="path-5" d="M103.699579,77.6 L130.108502,77.6 L128.436953,92 L106.891498,92 L103.699579,77.6 Z"></path>
        <path id="path-6" d="M6.38383838,149.384369 C18.8904084,163.379015 58.4415138,139.041532 75.3467487,139.199994 C88.9218285,139.327242 132.167214,161.665431 144.396938,152.129682 C165.641411,135.564961 152.414141,81.4723019 152.414141,69.2677923 C152.414141,40.76679 127.676768,12.8677923 114.111111,7.26779234 C100.545455,1.66779234 99.692208,5.67920588 96.5555556,4.86779234 C90.8270672,3.38590259 85.3773639,0.0677923353 79.3989899,0.0677923353 C41.7181077,0.0677923353 6.38383838,31.4915154 6.38383838,69.2677923 C6.38383838,79.064606 -7.62019725,133.714084 6.38383838,149.384369 Z"></path>
        <ellipse id="path-7" cx="44.6868687" cy="92" rx="8.77777778" ry="8.8"></ellipse>
        <path id="path-8" d="M114.111111,100.8 C118.958944,100.8 122.888889,96.8601058 122.888889,92 C122.888889,87.1398942 118.958944,83.2 114.111111,83.2 C109.263278,83.2 105.333333,87.1398942 105.333333,92 C105.333333,96.8601058 109.263278,100.8 114.111111,100.8 Z"></path>
    </defs>
    <g id="Design" stroke="none" stroke-width="1" fill="none" fill-rule="evenodd" sketch:type="MSPage">
        <g sketch:type="MSArtboardGroup" transform="translate(-994.000000, -362.000000)" id="UX">
            <g sketch:type="MSLayerGroup" transform="translate(994.000000, 362.000000)">
                <path d="M54.2460502,275.678628 C54.7016041,268.465112 58.0009689,252 58.0009689,252 L79,252 C79,252 74.8046672,265.690154 74.0602114,273.6 C73.4493736,280.090154 76.0700882,295.2 76.0700882,295.2 L56.7455218,295.2 C56.7455218,295.2 53.7922035,282.865112 54.2460502,275.678628 Z" id="Rectangle-37" fill="#FFEDDA" sketch:type="MSShapeGroup"></path>
                <path d="M79.4464103,275.678628 C79.9019642,268.465112 83.2013289,252 83.2013289,252 L104.20036,252 C104.20036,252 100.005027,265.690154 99.2605714,273.6 C98.6497337,280.090154 101.270448,295.2 101.270448,295.2 L81.9458819,295.2 C81.9458819,295.2 78.9925636,282.865112 79.4464103,275.678628 Z" id="Rectangle-37-Copy" fill="#FFEDDA" sketch:type="MSShapeGroup" transform="translate(91.799675, 273.600000) scale(-1, 1) translate(-91.799675, -273.600000) "></path>
                <g id="Path-17-Copy-2-+-Rectangle-35" transform="translate(117.303030, 211.200000)" sketch:type="MSShapeGroup">
                    <path d="M17.2987459,18.2976562 C12.7023979,13.2044467 4.02969825,13.6476562 4.02969825,13.6476562 C4.02969825,13.6476562 -0.47384663,21.7694263 0.51351963,29.6883537 C1.50088589,37.6072811 10.8937385,45.1050767 16.4564417,42.0914049 C22.019145,39.077733 13.1924173,32.0883762 14.1797835,28.1289125 C15.1671498,24.1694488 15.3240136,32.6579515 17.2987461,35.6275492 C19.2734786,38.597147 22.8095429,35.9337022 20.8348104,32.4832033 C19.9776275,30.9854265 20.8242364,22.2042494 17.2987459,18.2976562 Z" id="Path-17-Copy-2" fill="#FFEDDA" transform="translate(10.893738, 28.205320) scale(-1, 1) translate(-10.893738, -28.205320) "></path>
                    <path d="M7.67510062,9.94101581 C7.67510062,3.68593845 5.58585859,0.8 5.58585859,0.8 L17.5555556,0.8 C17.5555556,0.8 18.6247238,-0.622656316 20.0640487,11.5683593 C21.5033736,23.759375 21.0923049,26.2246094 21.0923049,26.2246094 L4.79489228,18.4 C4.79489228,18.4 7.67510062,16.1960932 7.67510062,9.94101581 Z" id="Rectangle-35" fill="#FFECD9"></path>
                </g>
                <g id="Path-17-Copy-2-+-Rectangle-35-Copy" transform="translate(29.924242, 232.800000) scale(-1, 1) translate(-29.924242, -232.800000) translate(19.151515, 211.200000)" sketch:type="MSShapeGroup">
                    <path d="M17.2987459,18.2976562 C12.7023979,13.2044467 4.02969825,13.6476562 4.02969825,13.6476562 C4.02969825,13.6476562 -0.47384663,21.7694263 0.51351963,29.6883537 C1.50088589,37.6072811 10.8937385,45.1050767 16.4564417,42.0914049 C22.019145,39.077733 13.1924173,32.0883762 14.1797835,28.1289125 C15.1671498,24.1694488 15.3240136,32.6579515 17.2987461,35.6275492 C19.2734786,38.597147 22.8095429,35.9337022 20.8348104,32.4832033 C19.9776275,30.9854265 20.8242364,22.2042494 17.2987459,18.2976562 Z" id="Path-17-Copy-2" fill="#FFEDDA" transform="translate(10.893738, 28.205320) scale(-1, 1) translate(-10.893738, -28.205320) "></path>
                    <path d="M7.67510062,9.94101581 C7.67510062,3.68593845 5.58585859,0.8 5.58585859,0.8 L17.5555556,0.8 C17.5555556,0.8 18.6247238,-0.622656316 20.0640487,11.5683593 C21.5033736,23.759375 21.0923049,26.2246094 21.0923049,26.2246094 L4.79489228,18.4 C4.79489228,18.4 7.67510062,16.1960932 7.67510062,9.94101581 Z" id="Rectangle-35" fill="#FFECD9"></path>
                </g>
                <g id="UX_cloth" transform="translate(13.565657, 132.000000)">
                    <g>
                        <g>
                            <g id="Path-10-Copy-2-+-Path-10-Copy-3" transform="translate(0.000000, 0.800000)">
                                <g id="Path-10-Copy-2">
                                    <use fill="#4A4A4A" fill-rule="evenodd" sketch:type="MSShapeGroup" xlink:href="#path-1"></use>
                                    <use fill="none" xlink:href="#path-1"></use>
                                </g>
                                <g id="Path-10-Copy-3">
                                    <use fill="#4A4A4A" fill-rule="evenodd" sketch:type="MSShapeGroup" transform="translate(98.868021, 67.313828) scale(-1, 1) translate(-98.868021, -67.313828) " xlink:href="#path-2"></use>
                                    <use fill="none" xlink:href="#path-2"></use>
                                </g>
                            </g>
                            <g id="Path-47">
                                <use fill="#FFFFFF" fill-rule="evenodd" sketch:type="MSShapeGroup" xlink:href="#path-3"></use>
                                <use fill="none" xlink:href="#path-3"></use>
                            </g>
                        </g>
                        <g id="Rectangle-16-Copy-2">
                            <use fill="#FFFFFF" fill-rule="evenodd" sketch:type="MSShapeGroup" xlink:href="#path-4"></use>
                            <use fill="none" xlink:href="#path-4"></use>
                        </g>
                        <g id="Rectangle-16-Copy-3">
                            <use fill="#FFFFFF" fill-rule="evenodd" sketch:type="MSShapeGroup" transform="translate(116.904040, 84.800000) scale(-1, 1) translate(-116.904040, -84.800000) " xlink:href="#path-5"></use>
                            <use fill="none" xlink:href="#path-5"></use>
                        </g>
                    </g>
                </g>
                <g id="UX_head">
                    <g id="Arch_head-Copy">
                        <g id="Oval-28">
                            <use fill="#676767" fill-rule="evenodd" sketch:type="MSShapeGroup" xlink:href="#path-6"></use>
                            <use fill="none" xlink:href="#path-6"></use>
                        </g>
                        <path d="M149.222222,84.4 C149.222222,123.059932 117.961296,154.4 79.3989899,154.4 C40.8366835,154.4 9.57575758,123.059932 9.57575758,84.4 C9.57575758,79.8764412 10.003754,75.4530994 10.8213641,71.1684545 L29.2743253,59.2 C47.7759233,66.43125 90.7156526,71.2 114.24203,68.56875 C137.768407,65.9375 130.418265,48.090625 136.7195,59.2 C141.959529,68.4384192 147.503498,80.5683318 149.222222,84.391959 Z" id="Oval-27" fill="#FFEDDA" sketch:type="MSShapeGroup"></path>
                        <g id="Oval-33">
                            <use fill="#4A4A4A" fill-rule="evenodd" sketch:type="MSShapeGroup" xlink:href="#path-7"></use>
                            <use fill="none" xlink:href="#path-7"></use>
                        </g>
                        <g id="Oval-33-Copy">
                            <use fill="#4A4A4A" fill-rule="evenodd" sketch:type="MSShapeGroup" xlink:href="#path-8"></use>
                            <use fill="none" xlink:href="#path-8"></use>
                        </g>
                    </g>
                    <ellipse id="Oval-35-Copy-3" fill="#FFEDDA" sketch:type="MSShapeGroup" cx="149.621212" cy="92" rx="8.37878788" ry="11.2"></ellipse>
                    <ellipse id="Oval-35-Copy-2" fill="#FFEDDA" sketch:type="MSShapeGroup" cx="9.97474747" cy="92" rx="8.37878788" ry="11.2"></ellipse>
                    <ellipse id="Oval-72" fill="#50E3C2" sketch:type="MSShapeGroup" cx="11.5707071" cy="104.4" rx="3.59090909" ry="3.6"></ellipse>
                    <ellipse id="Oval-72-Copy" fill="#50E3C2" sketch:type="MSShapeGroup" cx="148.025253" cy="104.4" rx="3.59090909" ry="3.6"></ellipse>
                    <path d="M33.7504932,81.113045 C33.7504932,81.113045 34.5414595,73.0989825 45.0936514,74.1888262" id="Path-43" fill="#D8D8D8" sketch:type="MSShapeGroup"></path>
                    <path d="M114.82337,81.113045 C114.82337,81.113045 115.614337,73.0989825 126.166529,74.1888262" id="Path-43-Copy" fill="#D8D8D8" sketch:type="MSShapeGroup" transform="translate(120.494949, 77.600000) scale(-1, 1) translate(-120.494949, -77.600000) "></path>
                    <ellipse id="Oval-58" fill="#F8E0DA" sketch:type="MSShapeGroup" cx="39.5" cy="115.6" rx="9.97474747" ry="10"></ellipse>
                    <ellipse id="Oval-58-Copy" fill="#F8E0DA" sketch:type="MSShapeGroup" cx="120.09596" cy="115.6" rx="9.97474747" ry="10"></ellipse>
                </g>
                <g id="UX_shoes" transform="translate(32.717172, 284.000000)" fill="#9B9B9B" sketch:type="MSShapeGroup">
                    <g id="Rectangle-18-+-Oval-38-Copy-2-+-Oval-38-Copy-2-Copy-+-Oval-38-Copy-3" transform="translate(47.878788, 0.800000)">
                        <g id="Rectangle-18-+-Oval-38-Copy-2-+-Oval-38-Copy-2-Copy" transform="translate(12.003893, 12.400000) scale(-1, 1) translate(-12.003893, -12.400000) translate(0.034196, 0.000000)">
                            <path d="M2.63698187,3.20000003 C3.70385718,-0.332929793 21.5578309,0.175781217 21.5578309,0.175781217 C21.5578309,0.175781217 24.5775298,10.7234371 22.9433857,19.1999996 C21.2788783,27.8340605 0.0341961063,22.6437502 0.0341961063,22.6437502 C0.0341961063,22.6437502 0.593144202,9.96811526 2.63698187,3.20000003 Z" id="Rectangle-18"></path>
                        </g>
                        <path d="M17.6721757,23.4031115 C10.162923,22.0462847 12.0040039,23.3495047 12.7345537,19.2063506 C14.2069387,10.8560407 20.9648356,4.60443835 29.3301162,6.07946302 C37.6953967,7.55448768 43.4632077,12.7442628 41.9908228,21.0945727 C41.2489877,25.3017286 25.2974283,24.780898 17.6721757,23.4031115 Z" id="Oval-38-Copy-3"></path>
                    </g>
                    <g id="Rectangle-18-+-Oval-38-Copy-2-+-Oval-38-Copy-2-Copy-+-Oval-38-Copy-3-Copy" transform="translate(22.343434, 14.000000) scale(-1, 1) translate(-22.343434, -14.000000) ">
                        <g id="Rectangle-18-+-Oval-38-Copy-2-+-Oval-38-Copy-2-Copy" transform="translate(12.003893, 12.400000) scale(-1, 1) translate(-12.003893, -12.400000) translate(0.034196, 0.000000)">
                            <path d="M2.63698187,3.20000003 C3.70385718,-0.332929793 21.5578309,0.175781217 21.5578309,0.175781217 C21.5578309,0.175781217 24.5775298,10.7234371 22.9433857,19.1999996 C21.2788783,27.8340605 0.0341961063,22.6437502 0.0341961063,22.6437502 C0.0341961063,22.6437502 0.593144202,9.96811526 2.63698187,3.20000003 Z" id="Rectangle-18"></path>
                        </g>
                        <path d="M36.897795,25.0851352 C44.5285757,25.0528897 42.4891633,26.0166106 42.4891633,21.8095417 C42.4891633,13.3304147 36.9195134,6.00029179 28.4251849,6.00029179 C19.9308564,6.00029179 13.3494764,10.1096527 13.3494764,18.5887796 C13.3494764,22.8608376 29.149137,25.1178788 36.897795,25.0851352 Z" id="Oval-38-Copy-3" transform="translate(28.043046, 15.579453) scale(-1, 1) rotate(-10.000000) translate(-28.043046, -15.579453) "></path>
                    </g>
                </g>
            </g>
        </g>
    </g>
</svg>